<?plantuml 1.2026.1beta2?><svg xmlns="http://www.w3.org/2000/svg" xmlns:xlink="http://www.w3.org/1999/xlink" contentStyleType="text/css" data-diagram-type="ACTIVITY" height="216px" preserveAspectRatio="none" style="width:252px;height:216px;background:#FFFFFF;" version="1.1" viewBox="0 0 252 216" width="252px" zoomAndPan="magnify"><defs/><g><rect fill="#F1F1F1" height="33.9688" rx="12.5" ry="12.5" style="stroke:#181818;stroke-width:0.5;" width="58.7715" x="99.4082" y="11"/><text fill="#000000" font-family="sans-serif" font-size="12" lengthAdjust="spacing" textLength="38.7715" x="109.4082" y="32.1387">Step 1</text><polygon fill="#F1F1F1" points="99.8652,64.9688,157.7227,64.9688,169.7227,76.9688,157.7227,88.9688,99.8652,88.9688,87.8652,76.9688,99.8652,64.9688" style="stroke:#181818;stroke-width:0.5;"/><text fill="#000000" font-family="sans-serif" font-size="11" lengthAdjust="spacing" textLength="57.8574" x="99.8652" y="80.7769">condition1</text><rect fill="#F1F1F1" height="33.9688" rx="12.5" ry="12.5" style="stroke:#181818;stroke-width:0.5;" width="58.7715" x="35.958" y="146.9688"/><text fill="#000000" font-family="sans-serif" font-size="12" lengthAdjust="spacing" textLength="38.7715" x="45.958" y="168.1074">Step 2</text><polygon fill="#F1F1F1" points="32,98.9688,98.6875,98.9688,110.6875,110.9688,98.6875,122.9688,32,122.9688,20,110.9688,32,98.9688" style="stroke:#181818;stroke-width:0.5;"/><text fill="#000000" font-family="sans-serif" font-size="11" lengthAdjust="spacing" textLength="66.6875" x="32" y="114.7769">loop forever</text><rect fill="#F1F1F1" height="33.9688" rx="12.5" ry="12.5" style="stroke:#181818;stroke-width:0.5;" width="99.1133" x="142.6875" y="98.9688"/><text fill="#000000" font-family="sans-serif" font-size="12" lengthAdjust="spacing" textLength="79.1133" x="152.6875" y="120.1074">end normally</text><ellipse cx="192.2441" cy="178.9375" fill="none" rx="11" ry="11" style="stroke:#222222;stroke-width:1;"/><ellipse cx="192.2441" cy="178.9375" fill="#222222" rx="6" ry="6" style="stroke:#222222;stroke-width:1;"/><line style="stroke:#181818;stroke-width:1;" x1="65.3438" x2="65.3438" y1="122.9688" y2="146.9688"/><polygon fill="#181818" points="61.3438,136.9688,65.3438,146.9688,69.3438,136.9688,65.3438,140.9688" style="stroke:#181818;stroke-width:1;"/><line style="stroke:#181818;stroke-width:1;" x1="65.3438" x2="65.3438" y1="180.9375" y2="192.9375"/><line style="stroke:#181818;stroke-width:1;" x1="65.3438" x2="122.6875" y1="192.9375" y2="192.9375"/><polygon fill="#181818" points="118.6875,161.9531,122.6875,151.9531,126.6875,161.9531,122.6875,157.9531" style="stroke:#181818;stroke-width:1;"/><line style="stroke:#181818;stroke-width:1;" x1="122.6875" x2="122.6875" y1="110.9688" y2="192.9375"/><line style="stroke:#181818;stroke-width:1;" x1="122.6875" x2="110.6875" y1="110.9688" y2="110.9688"/><polygon fill="#181818" points="120.6875,106.9688,110.6875,110.9688,120.6875,114.9688,116.6875,110.9688" style="stroke:#181818;stroke-width:1;"/><line style="stroke:#181818;stroke-width:1;" x1="192.2441" x2="192.2441" y1="132.9375" y2="167.9375"/><polygon fill="#181818" points="188.2441,157.9375,192.2441,167.9375,196.2441,157.9375,192.2441,161.9375" style="stroke:#181818;stroke-width:1;"/><line style="stroke:#181818;stroke-width:1;" x1="87.8652" x2="65.3438" y1="76.9688" y2="76.9688"/><line style="stroke:#181818;stroke-width:1;" x1="65.3438" x2="65.3438" y1="76.9688" y2="98.9688"/><polygon fill="#181818" points="61.3438,88.9688,65.3438,98.9688,69.3438,88.9688,65.3438,92.9688" style="stroke:#181818;stroke-width:1;"/><line style="stroke:#181818;stroke-width:1;" x1="169.7227" x2="192.2441" y1="76.9688" y2="76.9688"/><line style="stroke:#181818;stroke-width:1;" x1="192.2441" x2="192.2441" y1="76.9688" y2="98.9688"/><polygon fill="#181818" points="188.2441,88.9688,192.2441,98.9688,196.2441,88.9688,192.2441,92.9688" style="stroke:#181818;stroke-width:1;"/><line style="stroke:#181818;stroke-width:1;" x1="128.7939" x2="128.7939" y1="44.9688" y2="64.9688"/><polygon fill="#181818" points="124.7939,54.9688,128.7939,64.9688,132.7939,54.9688,128.7939,58.9688" style="stroke:#181818;stroke-width:1;"/><?plantuml-src 7Sin3i8m30NGtQVms0uTofX8N88HCLJDZsB9s55gWRWzqFszT0jqNZD9vMbtAnBYjiuS3KRl9WgUrBrpzO4NnapfB9TCi782MkvDIe4zbYiLnBOtWXwWz1DiFfwRwYVJ4Tx_IUeN?></g></svg>